<?xml version="1.0" encoding="UTF-8"?>
<!DOCTYPE svg PUBLIC "-//W3C//DTD SVG 1.0//EN" "http://www.w3.org/TR/2001/REC-SVG-20010904/DTD/svg10.dtd">
<!-- Creator: CorelDRAW -->
<svg xmlns="http://www.w3.org/2000/svg" xml:space="preserve" width="94.1916mm" height="52.9166mm" version="1.0" style="shape-rendering:geometricPrecision; text-rendering:geometricPrecision; image-rendering:optimizeQuality; fill-rule:evenodd; clip-rule:evenodd"
viewBox="0 0 9404.92 5283.66"
 xmlns:xlink="http://www.w3.org/1999/xlink"
 xmlns:xodm="http://www.corel.com/coreldraw/odm/2003">
 <defs>
  <style type="text/css">
   <![CDATA[
    .fil8 {fill:#02723B}
    .fil5 {fill:#17234E}
    .fil9 {fill:#2172B9}
    .fil7 {fill:#2A3282}
    .fil4 {fill:#DD5900}
    .fil3 {fill:#FEFEFE}
    .fil2 {fill:#373435;fill-opacity:0.031373}
    .fil1 {fill:#2B2A29;fill-opacity:0.101961}
    .fil6 {fill:#FEFEFE;fill-opacity:0.250980}
    .fil0 {fill:#DC3C00}
   ]]>
  </style>
 </defs>
 <g id="Layer_x0020_1">
  <metadata id="CorelCorpID_0Corel-Layer"/>
  <polygon class="fil0" points="-0,0 9404.92,0 9404.92,5283.66 -0,5283.66 "/>
  <polygon class="fil1" points="2993.89,5283.66 2938.53,5283.66 2922.16,5283.66 2769.58,5283.66 2736.08,5283.66 2690.29,5283.66 2667.45,5283.66 2651.31,5283.66 2634.08,5283.66 2611.86,5283.66 2603.07,5283.66 2602.44,5283.66 2595.45,5283.66 2587.12,5283.66 2580.75,5283.66 2546.87,5283.66 2539.2,5283.66 2537.97,5283.66 2488.08,5283.66 2488.07,5283.66 2482.88,5283.66 2462.24,5283.66 2441.32,5283.66 2439.15,5283.66 2429.45,5283.66 2408.76,5283.66 2406.63,5283.66 2405.99,5283.66 2404.18,5283.66 2396.7,5283.66 2395.88,5283.66 2387.04,5283.66 2366.31,5283.66 2360.92,5283.66 2348.74,5283.66 2340.76,5283.66 2305.27,5283.66 2281.44,5283.66 2264.62,5283.66 2178.91,5283.66 2139.88,5283.66 2137.84,5283.66 2093.07,5283.66 2088.58,5283.66 2054.15,5283.66 2015.99,5283.66 2003.08,5283.66 2002.2,5283.66 1921.41,5283.66 1908.72,5283.66 1880.5,5283.66 1880.18,5283.66 1860.86,5283.66 1839.9,5283.66 1798.75,5283.66 1786.35,5283.66 1758.37,5283.66 1738.36,5283.66 1717.73,5283.66 1695.67,5283.66 1689.78,5283.66 1682.48,5283.66 1677.99,5283.66 1677.17,5283.66 1655.55,5283.66 1648.82,5283.66 1645.49,5283.66 1636.83,5283.66 1616.93,5283.66 1596.23,5283.66 1572.66,5283.66 1568.48,5283.66 1565.24,5283.66 1563.83,5283.66 1563.2,5283.66 1563.05,5283.66 1555.85,5283.66 1516.41,5283.66 1495.84,5283.66 1493.77,5283.66 1475.85,5283.66 1448.21,5283.66 1445.73,5283.66 1435.68,5283.66 1413,5283.66 1397.04,5283.66 1388.41,5283.66 1375.77,5283.66 1369.81,5283.66 1355.71,5283.66 1319.99,5283.66 1292.24,5283.66 1288.88,5283.66 1247.87,5283.66 1232.94,5283.66 1220.32,5283.66 1127.2,5283.66 1043.16,5283.66 1020.55,5283.66 1020.08,5283.66 1009.5,5283.66 1002.54,5283.66 1002.45,5283.66 988.95,5283.66 971.01,5283.66 970.12,5283.66 966.65,5283.66 961.91,5283.66 929.82,5283.66 928.4,5283.66 868.29,5283.66 825.06,5283.66 759.85,5283.66 721.04,5283.66 611.66,5283.66 564.86,5283.66 505.37,5283.66 467.84,5283.66 460.52,5283.66 445.64,5283.66 443.98,5283.66 428.72,5283.66 384.57,5283.66 384.55,5283.66 357.68,5283.66 356.56,5283.66 293.54,5283.66 263.06,5283.66 228.01,5283.66 211.87,5283.66 197.29,5283.66 192.38,5283.66 127.4,5283.66 91.48,5283.66 23.23,5283.66 10.79,5283.66 -0,5283.66 -0,5265.89 -0,5262.1 -0,5234.41 -0,5216.35 -0,5214.4 -0,5197.52 -0,5195.34 -0,5172.53 -0,5165.29 -0,5157.13 -0,5123.57 -0,5105.82 -0,5085.86 -0,5070.72 -0,5050.16 -0,5049.37 -0,5034.43 -0,5028.54 -0,5027.6 -0,5020.57 -0,5013.35 -0,5011.67 -0,5009.77 -0,4998.9 -0,4993.62 -0,4991.18 -0,4979.67 -0,4975.36 -0,4972.87 -0,4959.48 -0,4957.41 -0,4938.63 -0,4938.54 -0,4918.54 -0,4913.14 -0,4911.98 -0,4911.43 -0,4908.42 -0,4900.32 -0,4897.96 -0,4893.16 -0,4891.68 -0,4891.59 -0,4890.81 -0,4885.07 -0,4871.29 -0,4861.61 -0,4860.15 -0,4859.97 -0,4854.95 -0,4853.33 -0,4852.92 -0,4847.85 -0,4838.36 -0,4830.2 -0,4828.33 -0,4823.48 -0,4821.1 -0,4821.09 -0,4802.71 -0,4798.92 -0,4798.2 -0,4796.26 -0,4795.21 -0,4778.7 -0,4776.63 -0,4772.08 -0,4767.22 -0,4755.46 -0,4755.41 -0,4755.12 -0,4754.67 -0,4729.97 -0,4710.05 -0,4703.7 -0,4702.4 -0,4697.21 -0,4693.35 -0,4692.75 -0,4667.52 -0,4657.41 -0,4656.91 -0,4653.21 -0,4646.04 -0,4642.02 -0,4620.16 -0,4619.97 -0,4615.41 -0,4611.3 -0,4603.53 -0,4598.7 -0,4598.45 -0,4597.61 -0,4597.39 -0,4597.21 -0,4591.84 -0,4591.03 -0,4588.67 -0,4565.54 -0,4557.88 -0,4548.71 -0,4537.87 -0,4517.6 -0,4516.43 -0,4516.42 -0,4513.85 -0,4513.84 -0,4512.64 -0,4389.84 -0,4350.07 -0,4348.58 -0,4338.96 -0,4330.84 -0,4311.18 -0,4283.96 -0,4258.09 -0,4253.74 -0,4247.99 -0,4247.73 -0,4194.35 -0,4194.34 -0,4185.18 -0,4184.08 -0,4158.25 -0,4146.56 -0,4138.58 -0,4106.11 -0,4106.1 -0,4086.83 -0,4041.46 -0,4024.05 -0,3984.72 -0,3969.6 -0,3931.85 -0,3930.75 -0,3847.33 -0,3840.98 -0,3840.98 -0,3806.83 -0,3761.38 -0,3753.77 -0,3747.28 -0,3681.9 -0,3642.15 -0,3611.08 -0,3578.16 -0,3498.1 -0,3475.81 -0,3410.73 -0,3408.67 -0,3408.55 -0,3407.95 -0,3393.67 -0,3329.42 -0,3259.78 -0,3252.65 2871.7,1778.95 2861.66,1784.44 2852.02,1790.12 2842.84,1795.94 2834.15,1801.88 2825.99,1807.89 2818.39,1813.93 2809.99,1820.13 2801.78,1826.59 2793.77,1833.32 2785.97,1840.32 2778.37,1847.58 2770.99,1855.11 2763.83,1862.91 2756.89,1870.97 2750.18,1879.29 2743.7,1887.88 2737.46,1896.75 2731.45,1905.86 2725.7,1915.26 2720.2,1924.92 2714.95,1934.83 2710.78,1943.37 3381.6,1600.37 3368.48,1607.82 3355.79,1615.57 3343.51,1623.62 3331.63,1631.97 3320.12,1640.63 3308.98,1649.58 3298.19,1658.83 3287.7,1668.38 3277.53,1678.25 3267.64,1688.4 3258.02,1698.87 3248.64,1709.63 3239.51,1720.69 3230.57,1732.07 3221.83,1743.74 3213.28,1755.72 3213,1758.16 3212.26,1760.58 3211.22,1763.02 3210.03,1765.46 3208.84,1767.89 3207.8,1770.32 3207.06,1772.76 3206.79,1775.19 3202.77,1778.94 3200.2,1780.77 2677.99,2046.75 2677.62,2048.65 2675.5,2061.5 2673.69,2074.6 2672.2,2087.97 2671.05,2101.61 2670.21,2115.52 2669.7,2129.69 2669.53,2144.11 2482.99,2238.73 2481.25,2240.67 2467.72,2258.64 2455.73,2277.62 2445.31,2297.5 2436.46,2318.16 2429.2,2339.48 2425.85,2352.5 3358.45,1881.3 3372.98,1874.05 3387.97,1867.31 3403.41,1861.09 3419.28,1855.4 3435.61,1850.27 3452.38,1845.71 3469.61,1841.72 3487.28,1838.33 3505.4,1835.56 3523.98,1833.41 3546.56,1831.47 3568.18,1830.46 3588.86,1830.33 3608.63,1831.05 3627.52,1832.57 3645.55,1834.81 3662.75,1837.77 3679.15,1841.36 3694.78,1845.56 3709.64,1850.3 3723.79,1855.54 3737.23,1861.23 3750.01,1867.33 3762.13,1873.78 3773.64,1880.54 3784.54,1887.56 3794.88,1894.79 3804.68,1902.18 3813.96,1909.68 3822.74,1917.24 3831.07,1924.82 3838.95,1932.36 3846.43,1939.82 3853.51,1947.15 3860.24,1954.3 3866.63,1961.23 3872.71,1967.87 3878.5,1974.2 3884.05,1980.14 3889.36,1985.67 3894.46,1990.73 3898.55,1994.48 3914.79,1986.41 3923.08,1982.62 3931.73,1979.23 3940.66,1976.23 3949.88,1973.58 3959.33,1971.28 3968.96,1969.3 3978.75,1967.62 3988.64,1966.23 3998.62,1965.1 4008.63,1964.23 4018.64,1963.58 4028.6,1963.14 4038.5,1962.89 4048.26,1962.81 2904.63,2529.72 2905.03,2539.42 2905.78,2550.35 2906.85,2561.25 2908.2,2572.1 2909.84,2582.86 2911.77,2593.53 2913.97,2604.1 2916.44,2614.52 2919.17,2624.8 2922.16,2634.9 2925.38,2644.82 2928.86,2654.53 2932.55,2664.01 2936.48,2673.24 2940.63,2682.21 2944.98,2690.9 2949.53,2699.27 2954.29,2707.33 2965.62,2722.41 2969.95,2727.33 3973.76,2234.97 3965.97,2239.11 3958.19,2243.82 3944.22,2253.71 3932.17,2264.08 3927.68,2268.82 4027.22,2220.02 4027.21,2220.03 3927.67,2268.83 3921.88,2274.95 3913.23,2286.25 3906.07,2297.97 3900.27,2310.1 3895.67,2322.59 3892.16,2335.43 3890.16,2345.67 3991.38,2296.17 4000.87,2291.81 4006.14,2290.19 4012.92,2288.87 4021.01,2287.82 4030.2,2287 4040.28,2286.39 4051.09,2285.98 4062.39,2285.73 4073.99,2285.61 4085.71,2285.61 4097.35,2285.69 4108.68,2285.83 4119.53,2286 4129.7,2286.18 4138.96,2286.34 4147.16,2286.46 4154.06,2286.5 4613.84,2286.5 5958.37,1637.77 5945.26,1644.1 5933.09,1650.99 5922.04,1658.24 5912.33,1665.67 5902.09,1673.52 5892.35,1682.01 5883.11,1691.17 5874.42,1700.96 5866.28,1711.42 5858.73,1722.52 5854.98,1728.88 6260.2,1533.72 6244.24,1543.09 6229.33,1553.22 6215.36,1564.1 6202.24,1575.72 6189.88,1588.11 6178.19,1601.23 6167.04,1615.08 6156.37,1629.68 6156.19,1631.22 6155.72,1632.75 6155.06,1634.26 6154.31,1635.75 6153.55,1637.25 6152.89,1638.73 6152.43,1640.21 6152.25,1641.68 6149.75,1644.01 6148.16,1645.15 5827.91,1799 5826.99,1802.89 5824.18,1818.59 5822.15,1834.93 5820.91,1851.94 5820.49,1869.6 5710.26,1922.4 5704.16,1929.2 5695.81,1940.3 5688.4,1952.03 5681.96,1964.32 5676.49,1977.08 5675.51,1979.95 6245.9,1707.26 6264.13,1698.6 6283.46,1691.24 6303.9,1685.25 6325.44,1680.7 6348.11,1677.66 6375.42,1675.85 6400.41,1676.23 6423.23,1678.57 6443.98,1682.62 6462.83,1688.15 6479.87,1694.9 6495.25,1702.66 6509.1,1711.17 6521.53,1720.19 6532.68,1729.48 6542.68,1738.81 6551.67,1747.93 6559.76,1756.61 6567.09,1764.6 6573.78,1771.66 6579.32,1776.95 6589.48,1772.14 6599.96,1767.73 6611.17,1764.28 6622.95,1761.65 6635.11,1759.79 6647.47,1758.56 6659.83,1757.9 6672,1757.7 5965.82,2091.55 5965.7,2093.37 5965.66,2106.9 5966.41,2120.42 5967.9,2133.86 5970.1,2147.11 5972.99,2160.08 5976.5,2172.67 5980.64,2184.8 5985.33,2196.37 5990.57,2207.3 5996.3,2217.47 6003.28,2226.79 6010.75,2235.3 6018.71,2243.01 6027.18,2249.97 6036.15,2256.21 6045.67,2261.76 6055.71,2266.63 6066.31,2270.86 6077.47,2274.49 6089.2,2277.54 6101.52,2280.04 6114.44,2282.02 6127.96,2283.5 6142.11,2284.53 6156.89,2285.13 6172.31,2285.32 6184.84,2285.34 6199.8,2285.41 6217.04,2285.51 6236.36,2285.64 6257.59,2285.79 6280.53,2285.96 6305.03,2286.14 6330.9,2286.33 6357.94,2286.52 6386.01,2286.7 6414.91,2286.88 6444.44,2287.03 6474.46,2287.16 6504.76,2287.27 6535.19,2287.33 6565.53,2287.36 6595.63,2287.34 6625.32,2287.27 6654.4,2287.14 6682.68,2286.94 6710.01,2286.68 6736.2,2286.34 6761.06,2285.91 6784.43,2285.4 6806.12,2284.79 6825.94,2284.09 6843.72,2283.28 6859.29,2282.36 6872.46,2281.33 6883.05,2280.17 6890.89,2278.88 6895.79,2277.45 6914.46,2269.46 5757.47,2801.34 5756.2,2815.89 5756.2,2855.24 5819.71,2826.11 5827.97,2826.11 6431.69,2826.11 6439.55,2826.11 6439.55,3105.31 6690.74,2993.1 6688.74,2994.06 6688.67,2994.1 6701.1,2988.55 6698.64,2989.92 6696.47,2990.92 6686.64,2995.32 6686.54,2995.38 6684,2997.2 6679.05,3002.96 6675.66,3009.44 6673.57,3016.54 6672.47,3024.19 6672.1,3032.3 6672.19,3040.78 6672.44,3049.56 6672.59,3058.55 6672.59,3067.35 6695.4,3057.18 7037.78,3057.18 7037.78,3429.28 7037.97,3429.44 7037.97,3535.83 7037.78,3535.92 7037.78,3627.47 6825.27,3718.91 7031.89,3718.91 7035.44,3717.39 7039.08,3715.92 7042.87,3714.31 6692.7,3864.34 7553.88,5283.66 6692.7,3864.34 6665.68,3875.91 7524.5,5283.66 6665.68,3875.91 6042.93,4142.72 6694.49,5283.66 6042.93,4142.72 3379.92,5283.66 3379.87,5283.66 3379.71,5283.66 3188.78,5283.66 3179.98,5283.66 3078.15,5283.66 3074.05,5283.66 3001.65,5283.66 "/>
  <path class="fil2" d="M548.54 4627.69c17.95,27.21 29.6,53.36 40.96,82.43 8.45,16.91 12.93,48.09 52.57,48.09 11.61,0 28.28,-3.42 43.06,-11.61 16.63,-8.73 29.32,-21.94 35.94,-42l15.85 -53.36 38.57 -19.02 2.64 2.64c-5.27,20.09 -6.59,39.36 -6.59,54.43 0,44.63 38.57,61.56 69.22,61.56 17.95,0 34.09,-8.73 34.09,-25.11 0,-21.13 -8.98,-57.06 -20.62,-89.29 17.95,-17.95 35.94,-35.94 56.53,-50.47l3.17 1.6c8.98,38.04 14,75.56 14,100.66 0,24.57 -10.83,51.79 -19.81,69.49 -18.49,34.87 -51.25,62.62 -90.87,62.62 -30.1,0 -63.65,-15.07 -86.66,-43.06l-1.32 0c-21.66,26.96 -55.22,51.25 -108.86,51.25l-16.63 0c-2.64,35.41 -10.29,60.49 -21.94,82.95 -31.95,62.34 -126.81,106.47 -216.1,106.47 -124.17,0 -186.51,-71.59 -186.51,-166.96 0,-58.91 19.27,-113.6 48.88,-152.42l24.29 10.04c-18.49,35.41 -30.91,68.68 -30.91,101.45 0,89.29 72.66,131.83 156.4,131.83 77.68,0 173.83,-49.41 191.28,-106.72 -6.59,-62.62 -30.1,-91.93 -66.04,-148.99 10.83,-19.02 24.83,-38.04 42.28,-58.38l3.17 0 0 0 0 0 -0.02 -0.09zm1432.13 -336.04c26.15,16.39 51.79,35.66 76.87,57.85 -14,19.81 -31.45,37.79 -53.11,53.64 -25.11,-20.34 -50.19,-37.79 -75.84,-56.27 17.42,-19.55 34.62,-38.29 52.04,-55.22l0 0 0 0 0 0 0 0 0 0 0.03 0zm13.47 244.11c-42.28,0 -76.87,27.75 -76.87,48.34 0,44.13 84.53,57.85 185.72,57.31 -12.68,-51.79 -57.06,-105.68 -108.86,-105.68l0.01 0.03zm-94.86 236.19c54.96,0 103.04,-1.6 139.74,-10.83 40.96,-10.29 75.56,-30.91 75.56,-45.17 0,-3.7 0,-8.19 -1.32,-11.89 -22.98,2.11 -49.41,2.11 -72.38,2.11 -74.49,0 -131.55,-16.91 -154.02,-58.66 -5.55,-11.61 -9.51,-24.57 -9.51,-39.36 0,-40.43 17.42,-79.79 48.09,-107 25.61,-22.45 53.89,-36.44 82.67,-36.44 52.04,0 93.51,41.75 122.57,107.54 15.85,35.94 26.68,77.4 26.68,129.72 0,34.87 -9.51,64.19 -31.17,85.85 -40.43,39.11 -114.92,53.89 -229.04,53.89l-51.79 0 0 0 -13.47 0c-28.28,0 -48.62,-5.02 -64.72,-17.42l-2.64 0c0.79,6.59 1.32,12.93 1.32,19.02 0,25.61 -8.45,58.38 -25.61,84.53 -50.72,75.3 -105.68,108.04 -153.24,108.04 -48.09,0 -107,-18.49 -160.11,-42.54l9.51 -18.49c17.17,7.13 40.96,11.89 73.7,11.89 85.85,0 198.66,-82.43 212.66,-163 -3.17,-6.59 -8.98,-15.32 -17.17,-24.57 -25.11,-29.85 -40.96,-54.68 -55.75,-80.83 12.68,-25.11 24.29,-45.17 35.13,-63.4l4.49 -0.53c36.72,74.77 69.99,117.55 144.23,117.55l11.61 0 0 0 53.89 0 0 0 0 0 0 0 0 0 0 0 0.09 0.01zm-371.98 79c6.34,-34.34 6.87,-72.91 6.87,-108.86l0 -53.36c0,-99.6 -12.68,-244.36 -22.98,-338.68 17.95,-19.27 43.06,-42 62.87,-57.31l5.81 1.6c13.47,118.62 16.63,256 16.63,383.06 0,33.3 -1.32,65.79 -4.49,89.55 -1.85,30.1 -19.27,52.83 -56.53,87.7l-8.19 -3.7zm-382.8 -157.19c1.85,46.77 24.83,83.49 105.15,83.49 49.93,0 92.19,-12.93 138.96,-35.13 8.45,-3.7 12.93,-8.73 12.93,-12.93 0,-29.32 -22.45,-68.15 -60.23,-103.55 -36.72,-33.3 -85.34,-62.62 -130.76,-82.18 -15.6,-6.59 -20.62,-13.47 -20.62,-20.09 0,-13.47 17.95,-41.75 32.77,-62.09l5.02 -0.53c52.04,27.21 110.17,67.64 153.24,112.53 39.11,41.47 63.4,83.49 63.4,129.19 0,33.81 -10.29,65.51 -26.96,95.11 -57.06,28.79 -117.83,50.72 -178.06,50.72 -73.17,0 -123.1,-34.34 -123.1,-114.92 0,-8.73 0,-22.19 3.17,-39.64l25.11 0 0 0 0 0 0 0 0 0 0 0 -0.02 0zm-132.37 -132.9l45.45 73.45c16.63,27.21 32.23,56.81 32.23,103.55l0 59.7c0,48.34 -30.91,100.13 -80.83,151.38 -39.11,34.62 -73.7,49.41 -105.68,49.41 -47.55,0 -101.98,-14.79 -164.85,-41.75l7.13 -18.49c19.81,5.27 42.79,9.77 71.06,9.77 90.36,-0.53 182.8,-66.57 225.08,-147.15 5.02,-9.26 6.87,-17.95 6.87,-24.04 0,-9.26 -5.02,-19.55 -8.98,-28.79 -22.98,-43.31 -48.62,-82.95 -76.87,-119.68 14.79,-23.25 29.6,-45.7 45.7,-67.9l3.7 0.53 0 0 0 0 0 0 0 0 0 0 -0.02 0.01z"/>
  <g id="_1415388499040">
   <path class="fil3" d="M3193.8 2247.76c-129.39,12.78 -213.57,58.21 -258.79,135.88 -51.92,97.14 -32.45,239.52 19.27,323.69 58.4,83.97 148.86,109.92 284.95,109.92 194.1,0 1113.25,12.98 1171.46,-12.97 168.34,-51.73 226.55,-388.39 -64.7,-453.09 -6.49,-116.41 -12.98,-200.59 -135.88,-278.27 -135.89,-84.16 -233.04,-38.94 -330.19,-12.97 -116.41,-200.6 -459.57,-233.04 -601.95,-25.97 -58.21,71.19 -58.21,110.13 -84.17,213.77l0.01 0.01zm-304.22 478.85c-64.7,-142.37 -90.65,-278.27 19.46,-420.63 32.25,-32.45 110.13,-77.68 174.83,-97.14 71.19,-25.97 45.23,0 64.7,-71.19 51.72,-155.35 174.82,-284.76 375.41,-304.22 246.01,-25.96 323.68,116.41 375.41,161.84 38.73,-25.97 97.14,-32.45 148.86,-32.45 -38.94,-323.5 -381.9,-504.82 -666.66,-362.44 -71.18,38.94 -123.1,90.66 -168.33,155.35 0,6.49 -6.49,12.98 -6.49,19.47 -12.98,12.98 -6.49,0 -12.98,6.49 -77.67,-19.47 -103.43,-45.43 -207.08,-38.94 -64.7,6.49 -129.4,38.94 -168.34,71.19 -90.65,64.69 -148.86,174.82 -148.86,330.18 -291.24,25.96 -349.45,427.13 -77.67,556.73 77.67,38.74 207.08,25.76 297.73,25.76zm3254.6 -793.1c-79.84,8.07 -131.76,35.99 -159.89,83.97 -31.85,59.98 -19.86,147.89 12,200 35.99,51.91 92.03,67.85 176,67.85 119.96,0 687.49,8.06 723.48,-7.87 104.02,-32.05 140.01,-239.92 -39.92,-280.04 -3.93,-71.77 -8.07,-123.89 -83.97,-171.88 -83.97,-51.91 -143.96,-23.99 -203.93,-7.86 -71.98,-124.09 -283.77,-143.95 -371.67,-16.14 -36,44.05 -36,68.05 -52.11,131.96zm-187.81 295.96c-39.92,-88.1 -56.06,-172.07 11.99,-259.98 20.06,-19.85 68.05,-47.98 107.97,-59.98 43.85,-15.93 27.93,0 39.92,-43.84 32.06,-95.97 107.97,-176 231.85,-188.01 152.01,-15.93 200,71.98 231.85,99.9 23.99,-15.93 59.99,-19.86 92.04,-19.86 -23.99,-199.99 -235.79,-311.89 -411.8,-223.98 -44.04,23.99 -75.91,56.05 -103.83,95.96 0,4.13 -4.12,8.07 -4.12,12 -8.07,8.06 -3.93,0 -8.07,4.12 -47.79,-11.99 -63.91,-28.12 -127.83,-23.98 -39.92,3.92 -80.04,23.98 -104.02,43.84 -55.85,40.13 -91.84,107.97 -91.84,203.93 -179.93,15.93 -215.92,263.91 -47.99,343.75 47.99,23.99 127.83,16.13 183.88,16.13l0 -0.01z"/>
   <polygon class="fil4" points="2508.07,2871.14 2508.07,3555.3 3676.58,3555.3 3676.58,2850.69 2508.07,2850.69 2508.07,2871.15 "/>
   <path class="fil5" d="M2508.07 2850.69l1168.51 0 0 704.6 -1168.51 0 0 -704.6zm-55.65 -20.65l0 769.11 1279.81 0 0 -769.11c-2.95,-49.75 -88.1,-35.21 -134.9,-35.21l-1012.97 0c-46.81,0 -126.06,-14.55 -131.96,35.21l0.01 0zm534.3 877.85l211.2 0c2.96,14.56 5.9,20.46 -8.65,23.4l-88.1 0c-20.65,0 -102.85,2.96 -114.46,-2.95l0 -20.46zm-643.06 0l0 41.11c17.69,23.4 35.2,14.55 88.1,14.55l1309.32 0c20.65,0 82.21,5.9 94,-5.7 5.9,-8.85 8.86,-32.45 5.9,-44.05 -2.95,-14.75 -70.6,-55.85 -85.14,-67.65 -29.51,-23.4 -29.51,-17.5 -82.21,-17.5l-1209.61 0.01c-17.5,0 -23.4,5.9 -35.21,14.55l-85.14 64.7 -0.01 -0.01z"/>
   <polygon class="fil6" points="2619.77,2850.69 3039.83,2850.69 3564.89,3555.3 3144.84,3555.3 "/>
   <path class="fil3" d="M2911.21 3109.29c52.7,-4.72 103.83,-14.36 110.32,43.06 2.95,24.97 -3.15,47 -15.93,60.96 -15.35,16.52 -32.65,17.69 -61.95,17.69l0 64.7 -33.83 -1.97 1.38 -184.46 0 0.01zm221.82 -104.23l232.64 0 1.38 383.67 -234.02 0.01 0 -47.99 182.3 0 0 -23.99 -184.66 0 1.18 -35.99 183.48 0 -1.19 -23.99 -181.12 0 0.4 -62.15c65.88,61.56 138.44,15.35 141.2,-50.53l-79.26 0 0 -79.65c-26.94,0.59 -49.17,12.19 -61.55,28.51l-0.79 -8.85 0 -79.06 0 0.01zm-333.33 -16.9l0 433.02 333.13 58.6 0.19 -71.77c38.74,0 207.09,1.97 230.28,-0.39 21.64,-1.98 21.84,-13.38 21.64,-35.6l0 -347.88c0.19,-21.63 1.18,-35.01 -19.47,-37.75 -18.48,-2.76 -197.64,-0.59 -232.45,-0.59l0 -59.59 -293.6 51.52c-10.42,1.77 -34.62,1.97 -39.73,10.42l0.01 0z"/>
   <path class="fil3" d="M3207.37 3132.1l81.61 0c-1.97,-46.21 -35.01,-79.25 -81.61,-81.61l0 81.61zm-263.91 66.08c25.17,0 40.51,-3.15 40.31,-30.09 0,-25.56 -13.76,-30.28 -39.13,-27.73l-1.18 57.82z"/>
   <path class="fil7" d="M3952.89 3198.77c3.53,23.79 16.71,40.91 29.89,50.34 20.25,14.75 34.81,15.14 63.71,15.14l1275.09 0c33.63,0 128.42,4.13 153.01,-5.11 19.66,-7.28 33.82,-21.44 41.89,-39.13 9.64,-21.04 7.08,-47.01 7.08,-72.17l-0.01 -716.02c0,-50.73 10.03,-99.51 -30.47,-129.98 -18.09,-13.77 -36.57,-15.35 -63.72,-15.35l-1275.29 0.01c-33.04,0 -129.4,-4.13 -153.19,5.31 -54.29,21.63 -48.78,70.39 -48.78,111.69 0,58.21 -2.17,775.4 0.79,795.27z"/>
   <path class="fil5" d="M4577.65 3545.47l0 139.82 -113.86 0c-24.97,0 -42.88,17.89 -42.88,33.43l0 26.16c0,18.87 18.69,35.4 37.36,35.4l562.83 -0.01c18.68,0 37.36,-16.52 37.36,-35.4 0,-23.99 3.34,-34.22 -13.37,-49.94 -6.69,-6.1 -17.3,-9.64 -29.51,-9.64l-111.9 0 0 -141.79c0,-12.98 -14.74,-27.93 -27.92,-27.93l-268.43 0c-16.33,0 -29.7,13.17 -29.7,29.89zm125.27 -180.93c-6.1,-23.99 10.61,-42.88 28.71,-47.01 50.54,-11.99 67.66,63.52 17.9,75.52 -24.18,5.9 -42.09,-10.81 -46.61,-28.51zm-675.31 -1074.71c21.04,-2.95 1304.4,-0.59 1343.93,-0.59 46.61,0 99.3,-9.44 128.22,30.09 14.16,19.27 17.3,32.25 17.3,61.16l0 792.12c0,26.15 -4.52,44.05 -18.29,59.98 -10.81,12.58 -26.35,24.78 -50.14,28.13 -24.58,3.34 -1301.84,0.98 -1344.52,0.98 -52.5,0 -95.38,9.25 -128.02,-30.08 -12.98,-15.54 -17.5,-35.41 -17.5,-60.77l0.01 -792.32c0,-45.03 20.06,-81.42 69.03,-88.7zm-0.4 -69.8c-28.51,3.53 -48.18,10.42 -69.03,23.79 -79.84,51.32 -72.17,125.07 -72.17,203.73l0 734.3c0,52.11 -6.09,129 11.81,172.66 16.32,39.92 51.72,75.12 95.77,89.09 41.5,13.18 125.85,7.87 173.84,7.87l1196.64 0c79.25,0 151.02,10.23 204.91,-70.2 32.25,-48.18 26.16,-94.2 26.16,-158.31l-0.01 -734.3c0,-51.91 6.09,-128.8 -12,-172.46 -16.51,-40.32 -51.12,-75.13 -95.37,-89.09 -41.5,-13.37 -125.86,-8.07 -174.05,-8.07l-1196.62 0c-26.55,0 -64.9,-2.17 -89.87,0.98l-0.01 0.01z"/>
   <polygon class="fil6" points="4086.21,2289.64 4665.56,2289.64 5389.83,3261.3 4810.49,3261.3 "/>
   <path class="fil3" d="M5087.96 3034.17l-279.24 0 0 -35.4 261.35 0 0 -36.57 -261.55 0 -0.19 -49.56 261.74 0.01 0 -30.08 -262.34 0 -0.19 -49.17 262.53 0 0 -34.23 -263.13 0.01 -0.19 -46.41 263.32 -0.01 0 -29.69 -263.72 0 0 -53.69 263.72 0 0 -29.89 -263.72 0 0 -56.05 263.72 0 0 -20.64 -263.72 0 0 -71.98 281.6 0 0 543.35zm-605.49 -144.93l51.13 0 37.36 -168.15 32.64 168.15 48.78 0 52.5 -246.41 -43.25 0 -30.28 190.56 -37.56 -171.88 -41.5 0 -39.52 169.72 -30.29 -169.72 -39.52 0 39.52 227.74 0 -0.01zm601.17 -426.34l-273.94 0 0 -64.69 -450.34 69.6 0 604.32 450.34 80.43 0 -93.61 273.94 0.01c18.29,0 33.04,-13.37 33.04,-29.7l0 -536.87c0,-16.33 -14.75,-29.5 -33.04,-29.5l0 0z"/>
   <path class="fil5" d="M6089.91 3708.88c-7.08,-24.57 10.23,-46.01 28.52,-51.12 56.23,-15.74 71.38,69.41 22.81,79.44 -22.42,4.72 -45.22,-6.49 -51.33,-28.32l0.01 0zm342.57 -873.93l0.19 778.75c-2.37,5.9 1.38,4.13 -5.51,5.7l-600.37 -0.2 1.18 -793.1 603.73 0 0.79 8.85zm-676.29 -19.08l0 873.93c0,43.46 28.32,75.52 73.16,75.52l600.17 0c44.45,0 73.75,-30.08 73.75,-77.87l0 -866.85c0,-47.2 -27.93,-77.87 -73.75,-77.87l-597.82 0c-46.8,0 -75.51,31.46 -75.51,73.16l0 -0.01z"/>
   <polygon class="fil8" points="5819.71,2826.11 6439.55,2826.11 6439.55,3633.57 5819.71,3633.57 "/>
   <polygon class="fil6" points="5819.71,2880 5819.71,3072.32 6439.75,3579.69 6439.75,3387.55 "/>
   <path class="fil3" d="M6255.69 3323.84l75.91 0 0 46.01 -75.91 0.01 0 -46.01 0 -0.01zm0 -59.98l75.91 0 0 46.02 -75.91 0 0 -46.02zm0 -59.98l75.91 0 0 46.22 -75.91 -0.01 0 -46.21 0 0zm0 -59.78l75.91 0 0 46.01 -75.91 0.01 0 -46.02 0 0zm0 -59.98l75.91 0 0 46.22 -75.91 -0.01 0 -46.22 0 0.01zm-80.63 46.21l0.39 13.77 66.27 0 0 46.01 -66.66 0.01 0.39 13.76 66.27 0 0 46.22 -66.66 -0.01 0.39 13.77 66.27 0 0 46.02 -66.66 0 0.39 13.97 66.27 -0.01 0 46.01 -66.66 0.01 0 29.89 183.28 -0.19c4.71,-6.1 3.14,-6.49 3.14,-18.09l0.2 -316.22c-0.4,-3.53 -1.77,-4.13 -3.34,-6.49l-183.27 0 0.39 25.36 66.27 0 0 46.22 -66.66 -0.01zm-277.48 -78.85l264.7 -43.46 -1.58 443.65 -262.73 -45.82 -0.39 -354.36zm189.57 90.45l-40.12 80.63 40.12 80.82 -30.48 0.01 -24.97 -50.14 -24.97 50.14 -30.48 0 40.13 -80.82 -40.13 -80.63 30.67 -0.01 24.78 49.75 24.58 -49.75 30.87 0z"/>
   <polygon class="fil9" points="6695.4,3071.34 6695.4,3627.47 7037.78,3627.47 7037.78,3057.18 6695.4,3057.18 "/>
   <path class="fil5" d="M6860.98 3651.86c28.52,-8.66 39.92,35.59 11.41,42.67 -27.14,8.66 -41.5,-34.22 -11.41,-42.67zm-165.58 -594.68l342.37 0 0 570.29 -342.37 0 0 -570.29zm5.7 661.73l330.97 0c8.46,-4.32 21.43,-5.7 27.13,-22.81 2.76,-11.41 1.38,-128.42 1.38,-145.52l0 -393.7c0,-18.48 2.75,-133.92 -2.96,-145.33 -5.69,-17.11 -18.48,-18.68 -25.56,-23.02l-330.96 0.01c-7.08,4.32 -9.84,2.96 -17.1,8.66 -15.54,14.35 -11.41,37.16 -11.41,61.35l0 492.04c0,17.1 -2.76,134.12 2.95,145.52 5.7,17.1 17.11,18.48 25.57,22.81z"/>
   <polygon class="fil6" points="6695.2,3148.81 6695.2,3255.2 7037.97,3535.83 7037.97,3429.44 "/>
   <path class="fil3" d="M6901.3 3305.95c11.2,3.74 22.81,2.96 31.06,-5.9l6.1 -6.29c9.44,5.3 15.14,11.8 19.46,22.42 -6.69,5.5 -13.37,12.39 -13.17,25.36 0.39,13.37 7.47,17.5 14.16,23.79 -1.58,10.62 -12.19,24.97 -20.46,27.53 -9.05,-13.57 -16.9,-19.46 -37.56,-13.96l0 51.52c34.62,9.83 38.34,-20.26 40.32,-23.6 1.77,-3.34 23.78,-13.76 29.3,-38.34 17.3,-0.4 31.06,-11.41 30.28,-29.51 -1.37,-26.94 -29.7,-26.15 -31.26,-27.13 -0.79,-0.59 -8.46,-18.29 -22.42,-26.55 -5.51,-3.34 -5.51,-1.97 -6.89,-9.64 -3.34,-18.48 -18.48,-26.94 -39.52,-21.24l0.58 51.52 0.02 0.01zm-120.36 56.43c6.89,3.15 9.84,7.67 20.06,8.66 8.07,0.98 18.69,-0.4 18.69,-9.45 0,-12.39 -20.85,-13.96 -31.46,-25.17 -22.62,-23.79 3.53,-61.16 48.38,-44.44l0.19 19.27c-11.2,-3.15 -25.96,-12.58 -35.2,1.38 -1.58,22.02 41.3,12.78 38.94,49.94 -2.17,32.25 -47.01,28.71 -59.59,20.65l0 -20.85 -0.01 0.01zm-48.38 86.33l160.08 27.93 0 -268.63 -160.28 28.72 0.19 211.99 0.01 0z"/>
  </g>
 </g>
</svg>
