<?xml version="1.0" encoding="UTF-8"?>
<!DOCTYPE svg PUBLIC "-//W3C//DTD SVG 1.1//EN" "http://www.w3.org/Graphics/SVG/1.1/DTD/svg11.dtd">
<!-- Creator: CorelDRAW 2020 (64-Bit) -->
<svg xmlns="http://www.w3.org/2000/svg" xml:space="preserve" width="94.1916mm" height="52.9166mm" version="1.1" style="shape-rendering:geometricPrecision; text-rendering:geometricPrecision; image-rendering:optimizeQuality; fill-rule:evenodd; clip-rule:evenodd"
viewBox="0 0 9404.92 5283.66"
 xmlns:xlink="http://www.w3.org/1999/xlink"
 xmlns:xodm="http://www.corel.com/coreldraw/odm/2003">
 <defs>
  <style type="text/css">
   <![CDATA[
    .fil13 {fill:none;fill-rule:nonzero}
    .fil0 {fill:#E6E7E8}
    .fil4 {fill:#414042;fill-rule:nonzero}
    .fil10 {fill:#6C6C6C;fill-rule:nonzero}
    .fil6 {fill:#70D5DA;fill-rule:nonzero}
    .fil15 {fill:#9FA0A2;fill-rule:nonzero}
    .fil7 {fill:#AEBDC1;fill-rule:nonzero}
    .fil5 {fill:#B3C1C5;fill-rule:nonzero}
    .fil11 {fill:#D3DBDD;fill-rule:nonzero}
    .fil14 {fill:#DAE1E3;fill-rule:nonzero}
    .fil12 {fill:#F3F5F6;fill-rule:nonzero}
    .fil8 {fill:#F7941E;fill-rule:nonzero}
    .fil3 {fill:#F8F9FA;fill-rule:nonzero}
    .fil9 {fill:white;fill-rule:nonzero}
    .fil2 {fill:#373435;fill-opacity:0.031373}
    .fil1 {fill:#2B2A29;fill-opacity:0.101961}
   ]]>
  </style>
 </defs>
 <g id="Layer_x0020_1">
  <metadata id="CorelCorpID_0Corel-Layer"/>
  <polygon class="fil0" points="-0,0 9404.92,0 9404.92,5283.66 -0,5283.66 "/>
  <path class="fil1" d="M6847.07 4125.44l0 -0.01 -0.04 0.01 0.04 0zm-6847.07 -1578.33l0 -24.21 3154.46 -1347.64 -12.68 7.02 -11.02 9.24 -9.08 11.11 -6.85 12.65 -1.23 3.94 49.76 -21.23 9.71 -2.89 10.52 -1 2458.11 0 818.75 -326.84 -4 2.24 -3.42 2.93 -2.78 3.51 -2.06 3.97 -1.29 4.33 -0.44 4.58 0 9.35 23.49 -9.37 150.57 0 0 179.58 12.12 2.25 12.02 2.61 11.9 2.95 11.79 3.3 11.65 3.63 0.78 0.27 240.71 -94.24 -4.25 1.95 -3.86 2.72 -40.09 40.09 56.66 -22.15 106.36 104.99 -135.38 136.75 5.36 8.61 5.18 8.75 5.01 8.86 4.82 8.99 4.63 9.12 4.42 9.23 4.21 9.35 3.99 9.47 3.77 9.58 3.53 9.69 3.3 9.8 3.04 9.9 2.79 10.01 2.52 10.1 2.24 10.21 1.96 10.31 186.49 0 0 150.57 0.03 0 -62.68 23.51 62.66 0 4.97 -0.44 4.53 -1.29 -231.2 86.59 -4.3 8.7 -5.15 9.78 -5.4 9.63 -5.64 9.47 -5.87 9.31 -6.1 9.15 117.41 117.41 -106.37 106.37 -11.06 4.06 0 16.82 1.59 0.73 2.24 0.81 2.32 0.6 2.42 0.37 2.53 0.13 2.13 -0.13 2.21 -0.37 2.25 -0.6 2.22 -0.8 -19.88 7.3 0 1886.03 230.7 110.18 0 0.01 -277.66 131.23 -0.01 0 -23.69 7.44 0.51 1.66 1.26 2.81 1.58 2.62 1.9 2.37 2.18 2.09 2.46 1.74 1.56 0.97 1.58 0.85 1.61 0.71 1.66 0.58 1.72 0.46 1.8 0.32 1.9 0.2 2.01 0.05 0.18 -0.01 2.1 -0.23 -211.87 65.94 -70.23 22.02 284.66 -88.59 -1.73 0.54 1.48 -0.16 -3697.31 1158.72 -0.87 0 -1.84 0 -0.02 0 0.02 0 3700.27 -1159.1 -3835.6 1159.1 -92.81 0 -24.8 0 -42.43 0 42.43 0 -42.43 0 -132.24 0 -3.81 0 -66.14 0 -86.86 0 -34 0 -48.06 0 -21.04 0 -4.86 0 -64.72 0 -59.57 0 -0.01 0 -22.07 0 -5.95 0 -18.58 0 -22.85 0 -1.51 0 -26.34 0 -2.71 0 -32.27 0 -20.86 0 -47.43 0 -420.43 0 -2.84 0 -66.7 0 -32.4 0 -3.56 0 -40.8 0 -16.6 0 -9.11 0 -19.65 0 -2.12 0 -20.16 0 -5.2 0 -44.75 0 -17.73 0 -50.08 0 -1.34 0 -11.19 0 -59.47 0 -17.55 0 -19.45 0 -1.04 0 -43.69 0 -34.43 0 -47.84 0 -5.1 0 -77.27 0 -46.39 0 -43.58 0 -15.96 0 -66.62 0 -2.8 0 -148.87 0 -45.43 0 -4.65 0 -67.3 0 -12.98 0 -3.68 0 -0.33 0 -11.85 0 -0.06 0 -8.61 0 -5.57 0 -22.78 0 -15.86 0 -21.76 0 -19.73 0 -4.83 0 -2.87 0 -14.76 0 -2.32 0 -0.61 0 -27.03 0 -20.36 0 -41.79 0 -44.06 0 -33.11 0 -33.83 0 -2.96 0 -7.36 0 -82.35 0 -3.47 0 -3.52 0 -173.86 0 0 -1.26 0 -16.18 0 -28.51 0 -13.48 0 -4.12 0 -5.17 0 -1.25 0 -9.18 0 -5.46 0 -4.68 0 -1.02 0 -3.59 0 -1.24 0 -12.31 0 -1.75 0 -5 0 -7.59 0 -3.86 0 -0.02 0 -10.77 0 -1.47 0 -1.02 0 -2.11 0 -6.67 0 -0.45 0 -1.03 0 -5.33 0 -0.09 0 -0.08 0 -2.2 0 -11.46 0 -0.12 0 -0.45 0 -0.64 0 -2.66 0 -10.38 0 -0.56 0 -4.39 0 -1.5 0 -2.76 0 -0.97 0 -2.83 0 -2.45 0 -4.88 0 -0.48 0 -1.1 0 -1.76 0 -0.08 0 -1.2 0 -6.06 0 -5.72 0 -0.09 0 -2.1 0 -1.97 0 -2.05 0 -0.21 0 -0.99 0 -0.31 0 -8.97 0 -0.21 0 -0.97 0 -1.2 0 -4.88 0 -0.67 0 -1.11 0 -2.81 0 -0.01 0 -7.3 0 -0.55 0 -2.97 0 -2.97 0 -3.57 0 -1.2 0 -0.38 0 -4.14 0 -6.26 0 -4.12 0 -10.54 0 -1.06 0 -2.84 0 -1.53 0 -4.16 0 -10.98 0 -1.05 0 -1.23 0 -0.12 0 -0.21 0 -1.14 0 -8.38 0 -1.52 0 -4.64 0 -10.69 0 -1.17 0 -0.71 0 -0.01 0 -22.02 0 -1.08 0 -5.73 0 -6.66 0 -1.36 0 -10.94 0 -1.32 0 -16.91 0 -9.43 0 -1.18 0 -4.64 0 -8.73 0 -20.6 0 -9.71 0 -14.89 0 -26.05 0 -1.36 0 -11.64 0 -15.35 0 -29.67 0 -5.12 0 -5.16 0 -1.63 0 -8.41 0 -27.07 0 -1.4 0 -1.01 0 -28.4 0 -1.54 0 -1.44 0 -9.11 0 -1.64 0 -1.71 0 -1.59 0 -9.54 0 -0.38 0 -9.1 0 -1.4 0 -3.02 0 -1.79 0 -12.48 0 -6.2 0 -8.97 0 -1.45 0 -0.69 0 -2.88 0 -21.14 0 -1.61 0 -6.01 0 -10.03 0 -1.15 0 -1.43 0 -4.06 0 -1.1 0 -0.03 0 -4.52 0 -2.08 0 -11.09 0 -1.1 0 -1.92 0 -9.26 0 -5.07 0 -0.47 0 -2.75 0 -7.88 0 -1.75 0 -1.93 0 -16.99 0 -7.35 0 -5.14 0 -0.01 0 -8.43 0 -1.47 0 -0.01 0 -4.49 0 -16.51 0 -7.02 0 -1.59 0 -20.89 0 -1.1 0 -2.59 0 -4.04 0 -1.53 0 -6.47 0 -5.4 0 -4.52 0 -1.43 0 -5.77 0 -8.62 0 -0.91 0 -5.53 0 -0.64 0 -3.24 0 -1.7 0 -0.35 0 -12.32 0 -1.52 0 -3.61 0 -15.67 0 -6.38 0 -8.62 0 -8.22 0 -4.07 0 -0.05 0 -1.48 0 -7.45 0 -1.51 0 -1.8 0 -0.03 0 -8.75 0 -8.74 0 -0.02 0 -20.35 0 -6.18 0 -1.23 0 -4.57 0 -4.6 0 -12.24 0 -8.57 0 -0.72 0 -6.75 0 -4.93 0 -2.97 0 -2.37 0 -1.65 0 -1.52 0 -2.96 0 -4.82 0 -5.62 0 -11.75 0 -2.34 0 -17.59 0 -10.43 0 -7.2 0 -1.45 0 -0.88 0 -1.68 0 -1.57 0 -10.9 0 -0.29 0 -1.54 0 -2.57 0 -0.01 0 -10.93 0 -4.74 0 -4.14 0 -6.49 0 -1.66 0 -2.99 0 -3.07 0 -8.36 0 -1.08 0 -17.5 0 -8.36 0 -1.6 0 -4.74 0 -28.31 0 -6.64 0 -12.57 0 -19.98 0 -0.34 0 -0.49 0 -0.75 0 -0.42 0 -1.02 0 -6.15 0 -0.9 0 -0.18 0 -7.54 0 -3.63 0 -3.43 0 -6.77 0 -2.55 0 -12.17 0 -8.93 0 -4.29 0 -2.15 0 -4.64 0 -1.53 0 -7.95 0 -7.04 0 -4.03 0 -1.76 0 -0.58 0 -1.92 0 -1.93 0 -10.6 0 -1.3 0 -0.25 0 -13.74 0 -4.69 0 -1.17 0 -0.61 0 -3.5 0 -4.48 0 -7.87 0 -3.65 0 -1.96 0 -20.53 0 -4.72 0 -1.26 0 -11.11 0 -18.17 0 -7.77 0 -1.45 0 -11.99 0 -8.19 0 -0.36 0 -0.87 0 -16.65 0 -1.88 0 -5.15 0 -0.77 0 -7.68 0 -20.41 0 -0.62 0 -6.03 0 -6.33 0 -7.13 0 -1.3 0 -6.43 0 -6.85 0 -7.68 0 -1.91 0 -2.89 0 -4.58 0 -4.46 0 -47.12 0 -9.33 0 -1.96 0 -14.51 0 -4.1 0 -10.56 0 -3.99 0 -1.39 0 -1.33 0 -15.71 0 -10.89 0 -2 0 -1.17 0 -6.65 0 -10.88 0 -1.47 0 -1.02 0 -10.08 0 -7.62 0 -1.48 0 -31.37 0 -10.7 0 -1.65 0 -1.35 0 -30.85 0 -47.69 0 -1.8 0 -60.43 0 -31.33 0 -14.26 0 -35.56 0 -1.81 0 -80.19 0 -1.88 0 -61.45 0 -30.22 0 -15.4 0 -33.62 0 -15.04 0 -117.75 0 -1.78 0 -9.51 0 -21.46 0 -9 0 -0.01 0 -4.16 0 -11.18 0 -158.99 0 -15.87 0 -2.92 0 -16.38 0 -4.33zm3151.62 2736.55l-24.5 0 24.5 0z"/>
  <path class="fil2" d="M578.49 4627.69c17.95,27.21 29.6,53.36 40.96,82.43 8.45,16.91 12.93,48.09 52.57,48.09 11.61,0 28.28,-3.42 43.06,-11.61 16.63,-8.73 29.32,-21.94 35.94,-42l15.85 -53.36 38.57 -19.02 2.64 2.64c-5.27,20.09 -6.59,39.36 -6.59,54.43 0,44.63 38.57,61.56 69.22,61.56 17.95,0 34.09,-8.73 34.09,-25.11 0,-21.13 -8.98,-57.06 -20.62,-89.29 17.95,-17.95 35.94,-35.94 56.53,-50.47l3.17 1.6c8.98,38.04 14,75.56 14,100.66 0,24.57 -10.83,51.79 -19.81,69.49 -18.49,34.87 -51.25,62.62 -90.87,62.62 -30.1,0 -63.65,-15.07 -86.66,-43.06l-1.32 0c-21.66,26.96 -55.22,51.25 -108.86,51.25l-16.63 0c-2.64,35.41 -10.29,60.49 -21.94,82.95 -31.95,62.34 -126.81,106.47 -216.1,106.47 -124.17,0 -186.51,-71.59 -186.51,-166.96 0,-58.91 19.27,-113.6 48.88,-152.42l24.29 10.04c-18.49,35.41 -30.91,68.68 -30.91,101.45 0,89.29 72.66,131.83 156.4,131.83 77.68,0 173.83,-49.41 191.28,-106.72 -6.59,-62.62 -30.1,-91.93 -66.04,-148.99 10.83,-19.02 24.83,-38.04 42.28,-58.38l3.17 0 0 0 0 0 -0.02 -0.09zm1432.13 -336.04c26.15,16.39 51.79,35.66 76.87,57.85 -14,19.81 -31.45,37.79 -53.11,53.64 -25.11,-20.34 -50.19,-37.79 -75.84,-56.27 17.42,-19.55 34.62,-38.29 52.04,-55.22l0 0 0 0 0 0 0 0 0 0 0.03 0zm13.47 244.11c-42.28,0 -76.87,27.75 -76.87,48.34 0,44.13 84.53,57.85 185.72,57.31 -12.68,-51.79 -57.06,-105.68 -108.86,-105.68l0.01 0.03zm-94.86 236.19c54.96,0 103.04,-1.6 139.74,-10.83 40.96,-10.29 75.56,-30.91 75.56,-45.17 0,-3.7 0,-8.19 -1.32,-11.89 -22.98,2.11 -49.41,2.11 -72.38,2.11 -74.49,0 -131.55,-16.91 -154.02,-58.66 -5.55,-11.61 -9.51,-24.57 -9.51,-39.36 0,-40.43 17.42,-79.79 48.09,-107 25.61,-22.45 53.89,-36.44 82.67,-36.44 52.04,0 93.51,41.75 122.57,107.54 15.85,35.94 26.68,77.4 26.68,129.72 0,34.87 -9.51,64.19 -31.17,85.85 -40.43,39.11 -114.92,53.89 -229.04,53.89l-51.79 0 0 0 -13.47 0c-28.28,0 -48.62,-5.02 -64.72,-17.42l-2.64 0c0.79,6.59 1.32,12.93 1.32,19.02 0,25.61 -8.45,58.38 -25.61,84.53 -50.72,75.3 -105.68,108.04 -153.24,108.04 -48.09,0 -107,-18.49 -160.11,-42.54l9.51 -18.49c17.17,7.13 40.96,11.89 73.7,11.89 85.85,0 198.66,-82.43 212.66,-163 -3.17,-6.59 -8.98,-15.32 -17.17,-24.57 -25.11,-29.85 -40.96,-54.68 -55.75,-80.83 12.68,-25.11 24.29,-45.17 35.13,-63.4l4.49 -0.53c36.72,74.77 69.99,117.55 144.23,117.55l11.61 0 0 0 53.89 0 0 0 0 0 0 0 0 0 0 0 0.09 0.01zm-371.98 79c6.34,-34.34 6.87,-72.91 6.87,-108.86l0 -53.36c0,-99.6 -12.68,-244.36 -22.98,-338.68 17.95,-19.27 43.06,-42 62.87,-57.31l5.81 1.6c13.47,118.62 16.63,256 16.63,383.06 0,33.3 -1.32,65.79 -4.49,89.55 -1.85,30.1 -19.27,52.83 -56.53,87.7l-8.19 -3.7zm-382.8 -157.19c1.85,46.77 24.83,83.49 105.15,83.49 49.93,0 92.19,-12.93 138.96,-35.13 8.45,-3.7 12.93,-8.73 12.93,-12.93 0,-29.32 -22.45,-68.15 -60.23,-103.55 -36.72,-33.3 -85.34,-62.62 -130.76,-82.18 -15.6,-6.59 -20.62,-13.47 -20.62,-20.09 0,-13.47 17.95,-41.75 32.77,-62.09l5.02 -0.53c52.04,27.21 110.17,67.64 153.24,112.53 39.11,41.47 63.4,83.49 63.4,129.19 0,33.81 -10.29,65.51 -26.96,95.11 -57.06,28.79 -117.83,50.72 -178.06,50.72 -73.17,0 -123.1,-34.34 -123.1,-114.92 0,-8.73 0,-22.19 3.17,-39.64l25.11 0 0 0 0 0 0 0 0 0 0 0 -0.02 0zm-132.37 -132.9l45.45 73.45c16.63,27.21 32.23,56.81 32.23,103.55l0 59.7c0,48.34 -30.91,100.13 -80.83,151.38 -39.11,34.62 -73.7,49.41 -105.68,49.41 -47.55,0 -101.98,-14.79 -164.85,-41.75l7.13 -18.49c19.81,5.27 42.79,9.77 71.06,9.77 90.36,-0.53 182.8,-66.57 225.08,-147.15 5.02,-9.26 6.87,-17.95 6.87,-24.04 0,-9.26 -5.02,-19.55 -8.98,-28.79 -22.98,-43.31 -48.62,-82.95 -76.87,-119.68 14.79,-23.25 29.6,-45.7 45.7,-67.9l3.7 0.53 0 0 0 0 0 0 0 0 0 0 -0.02 0.01z"/>
  <g id="_2686029821264">
   <path class="fil3" d="M3132.48 1455.2l0 2481c743.18,0 2783.53,0 3761.57,0l0 -2481c-1051.26,0 -3124.74,0 -3761.57,0z"/>
   <path class="fil4" d="M3157.34 3912.72l3713.22 0 0 -2434.04 -3713.22 0 0 2434.04zm3736.71 46.96l-3761.57 0c-12.43,0 -23.48,-9.67 -23.48,-23.48l0 -2481c0,-13.82 11.04,-24.87 23.48,-24.87l3761.57 0c13.82,0 24.86,11.05 24.86,24.87l0 2481c0,13.82 -11.04,23.48 -24.86,23.48z"/>
   <path class="fil5" d="M6894.05 1243.84c0,-27.63 -22.1,-49.72 -49.73,-49.72l-3660.72 0c-29.02,0 -51.11,22.1 -51.11,49.72l0 211.36c636.83,0 2710.32,0 3761.57,0l0 -211.36z"/>
   <path class="fil4" d="M3157.34 1430.32l3713.22 0 0 -186.49c0,-13.81 -12.42,-26.24 -26.24,-26.24l-3660.72 0c-15.2,0 -26.25,12.43 -26.25,26.24l0 186.49 -0.01 0zm3736.71 48.36l-3761.57 0c-12.43,0 -23.48,-11.05 -23.48,-23.48l0 -211.36c0,-40.06 33.16,-74.6 74.6,-74.6l3660.72 0c40.06,0 74.6,34.54 74.6,74.6l0 211.36c0,12.42 -11.04,23.48 -24.86,23.48z"/>
   <path class="fil4" d="M3534.47 3745.57c-13.81,0 -24.86,-11.04 -24.86,-26.24l0 -2239.26c0,-13.82 11.05,-24.86 24.86,-24.86 12.43,0 23.49,11.04 23.49,24.86l0 2239.26c0,15.2 -11.05,26.24 -23.49,26.24z"/>
   <path class="fil6" d="M4151.95 2264.7l-415.8 0c-13.82,0 -24.86,-9.68 -24.86,-23.48 0,-13.82 11.04,-23.49 24.86,-23.49l415.8 0c13.82,0 24.87,9.68 24.87,23.49 0,13.81 -11.05,23.48 -24.87,23.48z"/>
   <path class="fil7" d="M6550.07 2264.7l-2284.84 0c-12.42,0 -23.48,-9.68 -23.48,-23.48 0,-13.82 11.05,-23.49 23.48,-23.49l2284.84 0c12.43,0 23.49,9.68 23.49,23.49 0,13.81 -11.05,23.48 -23.49,23.48z"/>
   <path class="fil6" d="M3861.86 2626.62l-125.71 0c-13.82,0 -24.86,-11.04 -24.86,-23.48 0,-13.82 11.04,-24.86 24.86,-24.86l125.71 0c13.82,0 24.86,11.04 24.86,24.86 0,12.43 -11.04,23.48 -24.86,23.48z"/>
   <path class="fil7" d="M5357.93 2626.62l-1368.97 0c-13.82,0 -24.87,-11.04 -24.87,-23.48 0,-13.82 11.05,-24.86 24.87,-24.86l1368.97 0c12.42,0 23.48,11.04 23.48,24.86 0,12.43 -11.05,23.48 -23.48,23.48z"/>
   <path class="fil8" d="M4208.59 2985.79l-472.43 0c-13.82,0 -24.86,-9.67 -24.86,-23.48 0,-13.82 11.04,-23.48 24.86,-23.48l472.43 0c13.82,0 24.87,9.67 24.87,23.48 0,13.82 -11.05,23.48 -24.87,23.48z"/>
   <path class="fil6" d="M4524.93 2985.79l-128.48 0c-13.82,0 -24.86,-9.67 -24.86,-23.48 0,-13.82 11.04,-23.48 24.86,-23.48l128.48 0c12.43,0 23.48,9.67 23.48,23.48 0,13.82 -11.04,23.48 -23.48,23.48z"/>
   <path class="fil7" d="M6152.23 2985.79l-1504.35 0c-13.82,0 -24.87,-9.67 -24.87,-23.48 0,-13.82 11.05,-23.48 24.87,-23.48l1504.35 0c13.82,0 23.48,9.67 23.48,23.48 0,13.82 -9.67,23.48 -23.48,23.48z"/>
   <path class="fil7" d="M5060.92 3333.9l-1324.77 0c-13.82,0 -24.86,-11.05 -24.86,-24.86 0,-12.43 11.04,-23.49 24.86,-23.49l1324.77 0c12.42,0 23.48,11.05 23.48,23.49 0,13.81 -11.05,24.86 -23.48,24.86z"/>
   <path class="fil8" d="M5250.17 3333.9l-125.71 0c-13.82,0 -24.86,-11.05 -24.86,-24.86 0,-12.43 11.04,-23.49 24.86,-23.49l125.71 0c12.42,0 23.48,11.05 23.48,23.49 0,13.81 -11.04,24.86 -23.48,24.86z"/>
   <path class="fil8" d="M4151.95 3699.98l-415.8 0c-13.82,0 -24.86,-11.05 -24.86,-24.87 0,-12.42 11.04,-23.48 24.86,-23.48l415.8 0c13.82,0 24.87,11.04 24.87,23.48 0,13.82 -11.05,24.87 -24.87,24.87z"/>
   <path class="fil6" d="M4397.84 3699.98l-132.61 0c-12.42,0 -23.48,-11.05 -23.48,-24.87 0,-12.42 11.05,-23.48 23.48,-23.48l132.61 0c13.82,0 24.87,11.04 24.87,23.48 0,13.82 -11.05,24.87 -24.87,24.87z"/>
   <path class="fil7" d="M5969.88 3699.98l-1444.95 0c-13.82,0 -24.86,-11.05 -24.86,-24.87 0,-12.42 11.04,-23.48 24.86,-23.48l1444.95 0c12.43,0 23.49,11.04 23.49,23.48 0,13.82 -11.05,24.87 -23.49,24.87z"/>
   <polygon class="fil6" points="3158.72,3915.48 3508.22,3915.48 3508.22,1480.06 3158.72,1480.06 "/>
   <path class="fil6" d="M4265.23 1684.51l-529.08 0c-13.82,0 -24.86,-11.05 -24.86,-23.48 0,-13.82 11.04,-24.87 24.86,-24.87l529.08 0c13.82,0 24.87,11.05 24.87,24.87 0,12.42 -11.05,23.48 -24.87,23.48z"/>
   <path class="fil8" d="M4505.6 1684.51l-145.05 0c-13.81,0 -23.48,-11.05 -23.48,-23.48 0,-13.82 9.68,-24.87 23.48,-24.87l145.05 0c13.82,0 23.49,11.05 23.49,24.87 0,12.42 -9.68,23.48 -23.49,23.48z"/>
   <path class="fil7" d="M5186.64 1933.16l-1324.77 0c-12.43,0 -23.49,-11.04 -23.49,-24.86 0,-12.43 11.05,-23.48 23.49,-23.48l1324.77 0c13.81,0 24.86,11.04 24.86,23.48 0,13.82 -11.05,24.86 -24.86,24.86z"/>
   <path class="fil8" d="M5444.95 1933.16l-118.8 0c-13.82,0 -24.86,-11.04 -24.86,-24.86 0,-12.43 11.04,-23.48 24.86,-23.48l118.8 0c13.82,0 24.87,11.04 24.87,23.48 0,13.82 -11.05,24.86 -24.87,24.86z"/>
   <path class="fil9" d="M3390.81 1684.51l-164.39 0c-12.43,0 -23.48,-11.05 -23.48,-23.48 0,-13.82 11.04,-24.87 23.48,-24.87l164.39 0c13.81,0 24.86,11.05 24.86,24.87 0,12.42 -11.05,23.48 -24.86,23.48z"/>
   <path class="fil9" d="M3390.81 1933.16l-164.39 0c-12.43,0 -23.48,-11.04 -23.48,-24.86 0,-12.43 11.04,-23.48 23.48,-23.48l164.39 0c13.81,0 24.86,11.04 24.86,23.48 0,13.82 -11.05,24.86 -24.86,24.86z"/>
   <path class="fil9" d="M3390.81 2264.7l-164.39 0c-12.43,0 -23.48,-9.68 -23.48,-23.48 0,-13.82 11.04,-23.49 23.48,-23.49l164.39 0c13.81,0 24.86,9.68 24.86,23.49 0,13.81 -11.05,23.48 -24.86,23.48z"/>
   <path class="fil9" d="M3390.81 2626.62l-164.39 0c-12.43,0 -23.48,-11.04 -23.48,-23.48 0,-13.82 11.04,-24.86 23.48,-24.86l164.39 0c13.81,0 24.86,11.04 24.86,24.86 0,12.43 -11.05,23.48 -24.86,23.48z"/>
   <path class="fil9" d="M3390.81 2996.84l-164.39 0c-12.43,0 -23.48,-11.05 -23.48,-24.86 0,-12.43 11.04,-23.49 23.48,-23.49l164.39 0c13.81,0 24.86,11.05 24.86,23.49 0,13.81 -11.05,24.86 -24.86,24.86z"/>
   <path class="fil9" d="M3390.81 3333.9l-164.39 0c-12.43,0 -23.48,-11.05 -23.48,-24.86 0,-12.43 11.04,-23.49 23.48,-23.49l164.39 0c13.81,0 24.86,11.05 24.86,23.49 0,13.81 -11.05,24.86 -24.86,24.86z"/>
   <path class="fil9" d="M3390.81 3699.98l-164.39 0c-12.43,0 -23.48,-11.05 -23.48,-24.87 0,-12.42 11.04,-23.48 23.48,-23.48l164.39 0c13.81,0 24.86,11.04 24.86,23.48 0,13.82 -11.05,24.87 -24.86,24.87z"/>
   <path class="fil5" d="M7148.22 1556.03l0 -150.57 -186.49 0c-9.67,-55.26 -31.76,-106.37 -60.78,-151.95l135.38 -136.75 -106.36 -104.99 -132.61 132.61c-51.11,-38.68 -111.89,-64.92 -176.82,-75.97l0 -179.58 -150.57 0 0 180.96c-62.16,11.05 -120.18,37.29 -169.91,74.6l-132.61 -132.61 -106.36 104.99 136.75 136.75c-30.39,45.58 -51.11,96.69 -60.78,151.95l-186.49 0 0 150.57 186.49 0c8.29,46.97 24.86,91.17 48.35,132.61l-149.19 149.19 104.99 106.37 140.9 -140.91c52.49,44.21 117.41,75.97 187.88,89.79l0 176.81 150.57 0 0 -175.43c60.79,-11.04 117.42,-34.54 167.15,-69.08l117.41 118.81 106.37 -106.37 -117.41 -117.41c33.16,-48.36 56.63,-103.61 67.7,-164.39l186.49 0 -0.03 0z"/>
   <path class="fil4" d="M6493.44 2046.43l102.23 0 0 -151.95c0,-12.42 8.29,-22.1 20.72,-23.48 56.63,-11.05 110.51,-31.77 157.47,-64.93 9.68,-6.9 22.1,-5.52 30.39,2.78l100.84 100.84 71.83 -71.83 -100.84 -100.84c-8.3,-8.3 -9.68,-20.72 -2.78,-30.39 33.16,-46.96 53.88,-98.08 64.93,-154.72 1.38,-11.05 11.04,-19.34 23.48,-19.34l163.01 0 0 -102.22 -163.01 0c-12.42,0 -22.1,-8.3 -23.48,-19.34 -9.68,-52.49 -29.02,-100.85 -58.02,-145.05 -5.53,-9.68 -4.15,-22.1 4.14,-30.39l118.8 -118.8 -73.22 -71.83 -114.66 116.03c-8.29,8.3 -22.1,9.68 -31.76,2.77 -49.73,-37.29 -107.76,-62.16 -167.15,-71.82 -12.43,-2.78 -20.72,-12.43 -20.72,-23.49l0 -154.72 -102.23 0 0 156.09c0,11.05 -8.29,20.72 -19.34,23.49 -58.02,11.04 -111.89,34.53 -160.24,70.44 -9.68,6.91 -22.11,5.53 -30.39,-2.77l-116.03 -116.03 -71.83 71.83 118.8 120.18c8.3,6.9 9.68,19.34 2.78,29.02 -27.64,44.2 -46.97,92.55 -56.63,145.05 -2.78,11.04 -12.43,19.34 -23.49,19.34l-161.62 0 0 102.22 161.62 0c11.05,0 20.72,8.29 23.49,19.34 8.29,44.2 23.48,85.65 45.58,124.33 5.52,9.67 2.77,20.72 -4.14,29.01l-132.61 132.61 71.83 71.83 122.94 -122.95c9.68,-8.29 23.49,-9.67 33.16,-1.38 51.11,42.84 111.89,71.83 176.81,84.27 11.05,1.38 19.35,11.04 19.35,23.48l0 153.34 -0.02 -0.01zm127.09 48.36l-150.57 0c-13.82,0 -23.48,-11.05 -23.48,-24.86l0 -157.48c-59.4,-13.82 -114.66,-40.06 -163.01,-75.97l-124.33 124.33c-9.67,8.29 -24.86,8.29 -34.54,0l-106.36 -106.37c-9.68,-9.67 -9.68,-24.86 0,-33.16l136.75 -136.75c-16.57,-33.16 -29.02,-67.7 -37.29,-104.98l-167.15 0c-12.42,0 -23.48,-9.68 -23.48,-23.49l0 -150.57c0,-12.42 11.05,-23.48 23.48,-23.48l167.15 0c9.68,-44.2 26.24,-85.65 49.73,-125.71l-122.95 -121.56c-9.67,-9.68 -9.67,-24.87 0,-34.54l106.37 -106.37c8.29,-8.29 23.48,-8.29 33.16,0l118.8 118.81c44.2,-29.02 92.55,-51.11 143.67,-62.17l0 -161.62c0,-12.43 9.67,-23.48 23.48,-23.48l150.57 0c12.43,0 23.48,11.04 23.48,23.48l0 158.86c53.88,12.43 104.99,34.54 150.57,64.93l118.81 -118.81c9.67,-8.29 24.86,-8.29 34.54,0l104.98 106.37c9.68,9.68 9.68,24.86 0,34.54l-121.56 121.56c23.48,38.69 40.06,81.51 49.72,125.71l167.15 0c13.82,0 23.49,11.05 23.49,23.48l0 150.57c0,13.82 -9.68,23.49 -23.49,23.49l-167.15 0c-11.04,49.72 -30.38,95.32 -56.62,138.14l103.6 103.61c9.68,8.29 9.68,23.48 0,33.16l-106.37 106.36c-4.14,4.14 -11.04,6.91 -16.56,6.91l0 0c-6.91,0 -12.43,-2.78 -17.96,-6.91l-103.61 -103.6c-42.83,26.24 -89.79,45.58 -139.52,56.63l0 156.09c0,13.82 -11.05,24.86 -23.49,24.86l-0.01 -0.02z"/>
   <path class="fil9" d="M6750.38 1481.44c0,110.51 -89.79,201.68 -201.68,201.68 -110.51,0 -201.67,-91.17 -201.67,-201.68 0,-111.89 91.16,-201.68 201.67,-201.68 111.89,0 201.68,89.79 201.68,201.68z"/>
   <path class="fil4" d="M6548.7 1303.25c-98.08,0 -176.81,80.12 -176.81,178.2 0,98.09 78.74,176.82 176.81,176.82 98.09,0 178.21,-78.75 178.21,-176.82 0,-98.08 -80.12,-178.2 -178.21,-178.2zm0 403.36c-124.32,0 -225.17,-100.84 -225.17,-225.17 0,-124.33 100.85,-226.55 225.17,-226.55 124.33,0 226.55,102.22 226.55,226.55 0,124.33 -102.22,225.17 -226.55,225.17z"/>
   <path class="fil4" d="M2637.93 3458.23c-12.42,0 -22.1,-9.68 -22.1,-22.1l0 -400.61c0,-2.77 0,-84.26 55.26,-140.9 34.54,-34.54 80.12,-52.49 138.15,-52.49l323.25 0c12.43,0 23.48,11.04 23.48,23.48 0,12.43 -11.04,22.1 -23.48,22.1l-323.25 0c-45.59,0 -80.13,12.43 -104.99,38.68 -42.83,42.84 -42.83,109.13 -42.83,109.13l0 400.61c0,12.42 -11.05,22.1 -23.49,22.1l0 -0.01z"/>
   <polygon class="fil10" points="6697.88,4100.59 6697.88,3836.74 4896.53,3836.74 4896.53,4100.59 "/>
   <path class="fil4" d="M4921.4 4077.11l1753.01 0 0 -216.88 -1753.01 0 0 216.88zm1776.48 48.34l-1801.35 0c-12.43,0 -23.48,-11.04 -23.48,-24.86l0 -263.85c0,-13.82 11.04,-23.49 23.48,-23.49l1801.35 0c13.82,0 23.48,9.68 23.48,23.49l0 263.85c0,13.82 -9.67,24.86 -23.48,24.86z"/>
   <path class="fil7" d="M4882.72 3836.74l-106.36 0c-31.77,0 -56.63,26.24 -56.63,58.02l0 147.82c0,33.16 24.86,58.02 56.63,58.02l106.36 0c5.53,0 9.68,0 13.82,-1.38l0 -261.08c-4.14,0 -8.29,-1.38 -13.82,-1.38l0 -0.02z"/>
   <path class="fil4" d="M4776.36 3860.22c-17.96,0 -33.16,15.2 -33.16,34.54l0 147.82c0,19.34 15.2,34.54 33.16,34.54l96.69 0 0 -216.88 -96.69 0 0 -0.01zm106.36 265.23l-106.36 0c-44.21,0 -81.51,-37.29 -81.51,-82.88l0 -147.82c0,-45.59 37.29,-81.51 81.51,-81.51l106.36 0c6.91,0 12.43,0 20.72,2.78 9.68,2.77 17.96,12.42 17.96,22.1l0 261.08c0,11.04 -8.29,20.72 -17.96,23.48 -8.29,1.38 -13.81,2.77 -20.72,2.77z"/>
   <polygon class="fil11" points="6697.88,4100.59 6847.07,4100.59 6847.07,3836.74 6697.88,3836.74 "/>
   <path class="fil4" d="M6721.36 4077.11l100.85 0 0 -216.88 -100.85 0 0 216.88zm125.71 48.34l-149.19 0c-13.82,0 -23.48,-11.04 -23.48,-24.86l0 -263.85c0,-13.82 9.67,-23.49 23.48,-23.49l149.19 0c12.43,0 23.48,9.68 23.48,23.49l0 263.85c0,13.82 -11.04,24.86 -23.48,24.86z"/>
   <polygon class="fil12" points="7124.74,3969.35 7124.74,3969.35 6847.08,3836.74 6847.08,4100.59 7124.74,3969.36 "/>
   <path class="fil4" d="M6870.56 3874.03l0 189.25 198.93 -93.94 -198.93 -95.32zm-23.48 251.41c-5.52,0 -9.67,-1.38 -13.82,-4.14 -6.9,-4.14 -11.04,-12.43 -11.04,-20.72l0 -263.85c0,-8.3 4.14,-15.2 11.04,-20.72 6.91,-4.15 16.57,-4.15 23.49,-1.38l279.05 132.61c8.29,4.14 13.81,12.42 13.81,22.1 0,8.29 -5.52,16.57 -13.81,20.72l-279.05 132.61c-2.78,1.38 -6.91,2.77 -9.68,2.77l0 0.01z"/>
   <line class="fil13" x1="6577.7" y1="3969.35" x2="6402.26" y2= "3969.35" />
   <path class="fil4" d="M6577.7 3992.84l-175.44 0c-12.42,0 -23.48,-11.04 -23.48,-23.48 0,-13.82 11.05,-24.86 23.48,-24.86l175.44 0c13.81,0 23.48,11.04 23.48,24.86 0,12.43 -9.68,23.48 -23.48,23.48z"/>
   <line class="fil13" x1="5501.59" y1="3969.35" x2="4896.54" y2= "3969.35" />
   <path class="fil4" d="M5501.59 3992.84l-605.05 0c-12.42,0 -23.48,-11.04 -23.48,-23.48 0,-13.82 11.04,-24.86 23.48,-24.86l605.05 0c13.82,0 24.87,11.04 24.87,24.86 0,12.43 -11.05,23.48 -24.87,23.48z"/>
   <polygon class="fil14" points="2256.66,4394.83 4251.4,4394.83 4251.4,3543.87 2256.66,3543.87 "/>
   <path class="fil4" d="M2281.53 4369.95l1946.4 0 0 -802.58 -1946.4 0 0 802.58zm1969.9 48.36l-1994.75 0c-12.42,0 -23.48,-11.05 -23.48,-23.48l0 -850.95c0,-13.82 11.04,-24.86 23.48,-24.86l1994.75 0c13.81,0 24.86,11.04 24.86,24.86l0 850.95c0,12.42 -11.05,23.48 -24.86,23.48z"/>
   <path class="fil4" d="M3954.41 4111.65l-200.31 0c-13.82,0 -23.48,-11.05 -23.48,-24.87 0,-12.42 9.67,-23.48 23.48,-23.48l176.81 0 0 -212.73c0,-13.82 11.05,-24.87 23.49,-24.87 13.81,0 24.86,11.05 24.86,24.87l0 236.21c0,13.82 -11.05,24.87 -24.86,24.87z"/>
   <path class="fil4" d="M3321.73 4256.69l-719.72 0c-12.42,0 -23.48,-11.04 -23.48,-23.48 0,-13.82 11.05,-24.86 23.48,-24.86l719.72 0c13.82,0 24.86,11.04 24.86,24.86 0,12.43 -11.04,23.48 -24.86,23.48z"/>
   <path class="fil4" d="M3552.42 4256.69l-121.56 0c-12.43,0 -23.48,-11.04 -23.48,-23.48 0,-13.82 11.04,-24.86 23.48,-24.86l121.56 0c13.82,0 24.87,11.04 24.87,24.86 0,12.43 -11.05,23.48 -24.87,23.48z"/>
   <path class="fil4" d="M3794.17 4256.69l-140.9 0c-12.43,0 -23.49,-11.04 -23.49,-23.48 0,-13.82 11.05,-24.86 23.49,-24.86l140.9 0c12.43,0 23.48,11.04 23.48,24.86 0,12.43 -11.04,23.48 -23.48,23.48z"/>
   <path class="fil4" d="M2495.65 4256.69l-125.71 0c-12.42,0 -23.48,-11.04 -23.48,-23.48 0,-13.82 11.04,-24.86 23.48,-24.86l125.71 0c12.42,0 23.48,11.04 23.48,24.86 0,12.43 -11.04,23.48 -23.48,23.48z"/>
   <path class="fil4" d="M2495.65 3706.89l-125.71 0c-12.42,0 -23.48,-9.68 -23.48,-23.48 0,-13.82 11.04,-23.49 23.48,-23.49l125.71 0c12.42,0 23.48,9.68 23.48,23.49 0,13.81 -11.04,23.48 -23.48,23.48z"/>
   <path class="fil4" d="M2794.04 3706.89l-192.01 0c-12.43,0 -23.49,-9.68 -23.49,-23.48 0,-13.82 11.05,-23.49 23.49,-23.49l192.01 0c12.42,0 23.48,9.68 23.48,23.49 0,13.81 -11.04,23.48 -23.48,23.48z"/>
   <path class="fil4" d="M3860.49 3706.89l-947.65 0c-13.82,0 -24.86,-9.68 -24.86,-23.48 0,-13.82 11.04,-23.49 24.86,-23.49l947.65 0c12.42,0 23.48,9.68 23.48,23.49 0,13.81 -11.04,23.48 -23.48,23.48z"/>
   <path class="fil4" d="M4139.52 3706.89l-176.82 0c-13.82,0 -24.86,-9.68 -24.86,-23.48 0,-13.82 11.04,-23.49 24.86,-23.49l176.82 0c13.81,0 24.86,9.68 24.86,23.49 0,13.81 -11.05,23.48 -24.86,23.48z"/>
   <path class="fil4" d="M2510.85 3862.98l-140.91 0c-12.42,0 -23.48,-9.67 -23.48,-23.48 0,-13.82 11.04,-23.48 23.48,-23.48l140.91 0c12.42,0 23.48,9.67 23.48,23.48 0,13.82 -11.05,23.48 -23.48,23.48z"/>
   <path class="fil4" d="M2838.23 3862.98l-153.34 0c-12.43,0 -23.48,-9.67 -23.48,-23.48 0,-13.82 11.04,-23.48 23.48,-23.48l153.34 0c12.43,0 23.48,9.67 23.48,23.48 0,13.82 -11.04,23.48 -23.48,23.48z"/>
   <path class="fil4" d="M3183.59 3862.98l-153.35 0c-12.42,0 -23.48,-9.67 -23.48,-23.48 0,-13.82 11.05,-23.48 23.48,-23.48l153.35 0c12.42,0 23.48,9.67 23.48,23.48 0,13.82 -11.05,23.48 -23.48,23.48z"/>
   <path class="fil4" d="M2512.23 4068.81l-140.91 0c-12.42,0 -23.48,-11.04 -23.48,-24.86 0,-12.43 11.04,-23.48 23.48,-23.48l140.91 0c12.42,0 23.48,11.04 23.48,23.48 0,13.82 -11.05,24.86 -23.48,24.86z"/>
   <path class="fil4" d="M2839.62 4068.81l-153.34 0c-12.43,0 -23.48,-11.04 -23.48,-24.86 0,-12.43 11.04,-23.48 23.48,-23.48l153.34 0c13.82,0 23.49,11.04 23.49,23.48 0,13.82 -9.68,24.86 -23.49,24.86z"/>
   <path class="fil4" d="M3184.98 4068.81l-153.35 0c-12.42,0 -23.48,-11.04 -23.48,-24.86 0,-12.43 11.05,-23.48 23.48,-23.48l153.35 0c13.81,0 23.48,11.04 23.48,23.48 0,13.82 -9.68,24.86 -23.48,24.86z"/>
   <path class="fil4" d="M3527.56 3862.98l-151.95 0c-13.82,0 -24.86,-9.67 -24.86,-23.48 0,-13.82 11.04,-23.48 24.86,-23.48l151.95 0c13.82,0 24.86,9.67 24.86,23.48 0,13.82 -11.04,23.48 -24.86,23.48z"/>
   <path class="fil4" d="M3530.33 4068.81l-153.34 0c-13.82,0 -23.48,-11.04 -23.48,-24.86 0,-12.43 9.67,-23.48 23.48,-23.48l153.34 0c12.43,0 23.48,11.04 23.48,23.48 0,13.82 -11.04,24.86 -23.48,24.86z"/>
   <polygon class="fil7" points="2256.66,3543.87 4251.4,3543.87 4251.4,3436.12 2256.66,3436.12 "/>
   <path class="fil4" d="M2281.53 3519.01l1946.4 0 0 -59.4 -1946.4 0 0 59.4zm1969.9 48.36l-1994.75 0c-12.42,0 -23.48,-11.05 -23.48,-23.49l0 -107.76c0,-13.81 11.04,-24.86 23.48,-24.86l1994.75 0c13.81,0 24.86,11.05 24.86,24.86l0 107.76c0,12.43 -11.05,23.49 -24.86,23.49z"/>
   <polygon class="fil15" points="4251.42,4394.83 4361.94,4394.83 4361.94,3543.87 4251.42,3543.87 "/>
   <path class="fil4" d="M4276.29 4369.95l60.78 0 0 -802.58 -60.78 0 0 802.58zm85.65 48.36l-110.51 0c-12.43,0 -23.49,-11.05 -23.49,-23.48l0 -850.95c0,-13.82 11.05,-24.86 23.49,-24.86l110.51 0c12.42,0 23.48,11.04 23.48,24.86l0 850.95c0,12.42 -11.05,23.48 -23.48,23.48z"/>
   <polygon class="fil15" points="4251.42,3543.87 4361.94,3543.87 4361.94,3436.12 4251.42,3436.12 "/>
   <path class="fil4" d="M4276.29 3519.01l60.78 0 0 -59.4 -60.78 0 0 59.4zm85.65 48.36l-110.51 0c-12.43,0 -23.49,-11.05 -23.49,-23.49l0 -107.76c0,-13.81 11.05,-24.86 23.49,-24.86l110.51 0c12.42,0 23.48,11.05 23.48,24.86l0 107.76c0,12.43 -11.05,23.49 -23.48,23.49z"/>
  </g>
 </g>
</svg>
